<svg width="34" height="33" viewBox="0 0 34 33" fill="none" xmlns="http://www.w3.org/2000/svg">
<path d="M33.5876 9.82501C33.569 8.48124 33.3076 7.15082 32.8151 5.89327C32.388 4.83254 31.7357 3.86921 30.8998 3.06482C30.0639 2.26043 29.0629 1.63268 27.9606 1.22168C26.6707 0.755681 25.3079 0.503709 23.9303 0.47649C22.1567 0.400197 21.5943 0.378906 17.092 0.378906C12.5897 0.378906 12.0126 0.378906 10.2519 0.47649C8.87493 0.503909 7.51278 0.755878 6.22339 1.22168C5.12096 1.63239 4.11977 2.26004 3.28385 3.06447C2.44794 3.86889 1.79572 4.83238 1.36892 5.89327C0.883717 7.13371 0.62245 8.44484 0.596411 9.77001C0.517132 11.4786 0.493164 12.0198 0.493164 16.3525C0.493164 20.6852 0.493164 21.2388 0.596411 22.9349C0.624067 24.2621 0.884029 25.5715 1.36892 26.8152C1.79644 27.8758 2.44914 28.8389 3.28533 29.643C4.12153 30.4471 5.12282 31.0744 6.22523 31.4851C7.51109 31.9698 8.87348 32.2398 10.2537 32.2835C12.0292 32.3598 12.5915 32.3828 17.0939 32.3828C21.5962 32.3828 22.1733 32.3828 23.934 32.2835C25.3115 32.2574 26.6744 32.006 27.9643 31.5401C29.0663 31.1286 30.0671 30.5007 30.9029 29.6963C31.7387 28.892 32.3912 27.9289 32.8188 26.8685C33.3037 25.6265 33.5636 24.3171 33.5913 22.9882C33.6706 21.2813 33.6945 20.7402 33.6945 16.4057C33.6909 12.073 33.6909 11.523 33.5876 9.82501ZM17.081 24.546C12.3721 24.546 8.55752 20.875 8.55752 16.3436C8.55752 11.8122 12.3721 8.14125 17.081 8.14125C19.3415 8.14125 21.5095 9.00542 23.1079 10.5437C24.7064 12.0819 25.6044 14.1682 25.6044 16.3436C25.6044 18.519 24.7064 20.6053 23.1079 22.1435C21.5095 23.6818 19.3415 24.546 17.081 24.546ZM25.9436 9.75049C25.6826 9.75072 25.424 9.70141 25.1828 9.60538C24.9415 9.50934 24.7223 9.36847 24.5377 9.19081C24.3531 9.01316 24.2067 8.80222 24.1069 8.57006C24.0071 8.33791 23.9559 8.08909 23.9561 7.83785C23.9561 7.5868 24.0075 7.3382 24.1073 7.10626C24.2072 6.87431 24.3535 6.66356 24.538 6.48604C24.7224 6.30851 24.9414 6.1677 25.1825 6.07162C25.4235 5.97555 25.6818 5.9261 25.9427 5.9261C26.2036 5.9261 26.4619 5.97555 26.7029 6.07162C26.944 6.1677 27.163 6.30851 27.3474 6.48604C27.5319 6.66356 27.6782 6.87431 27.7781 7.10626C27.8779 7.3382 27.9293 7.5868 27.9293 7.83785C27.9293 8.8953 27.0406 9.75049 25.9436 9.75049Z" fill="#3FA0BB"/>
</svg>
