<svg width="38" height="37" viewBox="0 0 38 37" fill="none" xmlns="http://www.w3.org/2000/svg">
<path d="M19.1771 0.635742C8.96087 0.635742 0.679199 8.61872 0.679199 18.4665C0.679199 28.3143 8.96087 36.2972 19.1771 36.2972C29.3934 36.2972 37.675 28.3143 37.675 18.4665C37.675 8.61872 29.3934 0.635742 19.1771 0.635742ZM14.649 25.857H10.9032V14.2373H14.649V25.857ZM12.7529 12.8108C11.5698 12.8108 10.8049 12.0028 10.8049 11.0036C10.8049 9.98388 11.593 9.20007 12.8011 9.20007C14.0093 9.20007 14.7492 9.98388 14.7723 11.0036C14.7723 12.0028 14.0093 12.8108 12.7529 12.8108ZM28.3297 25.857H24.5839V19.4175C24.5839 17.9186 24.0405 16.9007 22.6859 16.9007C21.6512 16.9007 21.0365 17.5898 20.7649 18.2529C20.6647 18.4888 20.6396 18.8231 20.6396 19.1556V25.8551H16.8919V17.9427C16.8919 16.4921 16.8437 15.2792 16.7936 14.2354H20.0481L20.2196 15.8495H20.2947C20.788 15.0917 21.9961 13.9735 24.0174 13.9735C26.4819 13.9735 28.3297 15.5653 28.3297 18.9866V25.857V25.857Z" fill="#3FA0BB"/>
</svg>
