<svg width="12" height="15" viewBox="0 0 12 15" fill="none" xmlns="http://www.w3.org/2000/svg">
<path d="M10.5243 5.99703C10.5243 4.80123 10.0493 3.65441 9.20375 2.80886C8.3582 1.9633 7.21138 1.48827 6.01558 1.48827C4.81979 1.48827 3.67297 1.9633 2.82741 2.80886C1.98186 3.65441 1.50683 4.80123 1.50683 5.99703C1.50683 7.84662 2.9867 10.2573 6.01558 13.1449C9.04446 10.2573 10.5243 7.84662 10.5243 5.99703ZM6.01558 14.5136C2.34145 11.1741 0.504883 8.33457 0.504883 5.99703C0.504883 4.5355 1.08547 3.13383 2.11893 2.10037C3.15239 1.06692 4.55405 0.486328 6.01558 0.486328C7.47711 0.486328 8.87878 1.06692 9.91224 2.10037C10.9457 3.13383 11.5263 4.5355 11.5263 5.99703C11.5263 8.33457 9.68972 11.1741 6.01558 14.5136Z" fill="black"/>
</svg>
