<svg width="14" height="15" viewBox="0 0 14 15" fill="none" xmlns="http://www.w3.org/2000/svg">
<path d="M8.46858 14.5H8.49983C8.65427 14.5009 8.80542 14.4552 8.9336 14.3691C9.06178 14.2829 9.16108 14.1602 9.21858 14.0168L9.19666 14.0085L9.19674 14.0083C9.14098 14.1472 9.04474 14.2661 8.92052 14.3496C8.79624 14.4332 8.64971 14.4774 8.49996 14.4765H8.49983H8.4691M8.46858 14.5L8.46963 14.4766C8.46945 14.4765 8.46928 14.4765 8.4691 14.4765M8.46858 14.5V14.4765H8.4691M8.46858 14.5L8.4691 14.4765M8.4691 14.4765C8.17379 14.463 7.92874 14.2657 7.83168 13.9845L7.83151 13.9841C7.82949 13.9786 7.82777 13.9734 7.82603 13.9676L7.82617 13.9676L7.82513 13.9651L5.99283 9.67321C5.96895 9.59379 5.9662 9.50952 5.98487 9.42871C6.00363 9.3475 6.04336 9.27263 6.1001 9.21158L8.4691 14.4765ZM13.7645 0.736822C13.8636 0.836291 13.9317 0.962336 13.9607 1.09971C13.9896 1.23709 13.9781 1.37991 13.9276 1.51091L13.9276 1.51105L9.19683 14.0081L6.10012 9.21155L12.5164 2.32904C12.5165 2.32894 12.5166 2.32885 12.5167 2.32875C12.5393 2.30611 12.5572 2.27928 12.5694 2.24975C12.5817 2.2201 12.588 2.18832 12.588 2.15622C12.588 2.12412 12.5817 2.09234 12.5694 2.06269C12.5571 2.03304 12.5391 2.00609 12.5164 1.9834C12.4937 1.9607 12.4668 1.9427 12.4371 1.93042C12.4075 1.91813 12.3757 1.91181 12.3436 1.91181C12.3115 1.91181 12.2797 1.91813 12.25 1.93042C12.2205 1.94264 12.1937 1.96054 12.1711 1.9831C12.171 1.9832 12.1709 1.9833 12.1708 1.9834L5.28512 8.39936C5.22406 8.45611 5.14918 8.49585 5.06797 8.51461C4.98716 8.53328 4.90288 8.53054 4.82347 8.50666L0.534033 6.67498L0.534076 6.67488L0.531912 6.67419L0.519453 6.67024C0.519391 6.67022 0.519329 6.6702 0.519268 6.67018C0.377472 6.62269 0.25378 6.53261 0.165074 6.41222C0.0763296 6.29178 0.0269276 6.14688 0.0236156 5.99731C0.0203037 5.84774 0.0632432 5.7008 0.14657 5.57655C0.228717 5.45406 0.346169 5.35951 0.483266 5.3054V5.30628L0.491562 5.30314L12.9925 0.571577L12.9925 0.571563C13.1235 0.521774 13.266 0.510887 13.4029 0.540213C13.5399 0.569535 13.6654 0.637811 13.7645 0.736822ZM13.7645 0.736822C13.7645 0.736833 13.7645 0.736845 13.7645 0.736856L13.7811 0.720282L13.7645 0.736822Z" fill="white" stroke="white" stroke-width="0.046875"/>
</svg>
