<svg width="38" height="37" viewBox="0 0 38 37" fill="none" xmlns="http://www.w3.org/2000/svg">
<path d="M19.2606 0.635742C9.04547 0.635742 0.762695 8.61978 0.762695 18.4665C0.762695 28.3132 9.04547 36.2972 19.2606 36.2972C29.4758 36.2972 37.7585 28.3132 37.7585 18.4665C37.7585 8.61978 29.4758 0.635742 19.2606 0.635742ZM28.1503 14.0765C28.1627 14.2635 28.1627 14.4586 28.1627 14.6496C28.1627 20.4924 23.5465 27.2227 15.111 27.2227C12.5097 27.2227 10.0984 26.4943 8.06689 25.2406C8.4385 25.2804 8.7936 25.2963 9.17347 25.2963C11.3205 25.2963 13.2942 24.5958 14.8674 23.4097C12.8524 23.3699 11.1595 22.0963 10.5815 20.3451C11.2875 20.4446 11.9234 20.4446 12.6501 20.2655C11.6126 20.0623 10.68 19.5192 10.0109 18.7283C9.34175 17.9375 8.97728 16.9477 8.9794 15.9272V15.8715C9.58637 16.2018 10.3007 16.4048 11.048 16.4327C10.4198 16.0291 9.90454 15.4823 9.54801 14.8408C9.19149 14.1992 9.00469 13.4828 9.00418 12.7551C9.00418 11.9312 9.22714 11.179 9.62766 10.5262C10.7792 11.8927 12.2163 13.0104 13.8453 13.8065C15.4743 14.6026 17.2589 15.0594 19.0831 15.1471C18.4348 12.1421 20.7636 9.71032 23.563 9.71032C24.8843 9.71032 26.0735 10.2437 26.9116 11.1033C27.948 10.9163 28.939 10.5422 29.8226 10.0407C29.4799 11.0635 28.7614 11.9272 27.8076 12.4725C28.7325 12.377 29.6244 12.1302 30.4502 11.7839C29.8267 12.6675 29.0463 13.4516 28.1503 14.0765Z" fill="#3FA0BB"/>
</svg>
